<svg id="visual" viewBox="0 0 900 600" width="900" height="600" xmlns="http://www.w3.org/2000/svg" xmlns:xlink="http://www.w3.org/1999/xlink" version="1.1"><rect width="900" height="600" fill="#715DF2"></rect><g><g transform="translate(44 101)"><path d="M105.6 -32.3C119.2 7.3 100.2 59.5 66 82.4C31.7 105.3 -17.7 98.9 -53.6 73C-89.5 47.1 -111.8 1.8 -100.6 -34.6C-89.4 -71 -44.7 -98.5 0.7 -98.7C46 -98.9 92.1 -71.9 105.6 -32.3Z" stroke="#FFFFFF" fill="none" stroke-width="20"></path></g><g transform="translate(442 599)"><path d="M93.1 -30C103.4 1.5 82.6 43.3 50.7 65.5C18.8 87.7 -24.3 90.2 -54.7 69.5C-85.1 48.8 -102.8 4.8 -91.6 -28C-80.4 -60.7 -40.2 -82.3 0.6 -82.5C41.4 -82.7 82.8 -61.5 93.1 -30Z" stroke="#FFFFFF" fill="none" stroke-width="20"></path></g><g transform="translate(818 320)"><path d="M87.2 -26.6C97.7 4 80.4 45.4 50.4 66.4C20.4 87.5 -22.1 88.3 -51.4 67.7C-80.7 47.2 -96.8 5.3 -86 -25.7C-75.2 -56.7 -37.6 -76.7 0.4 -76.8C38.4 -76.9 76.7 -57.2 87.2 -26.6Z" stroke="#FFFFFF" fill="none" stroke-width="20"></path></g></g></svg>